<mxfile host="Electron" agent="Mozilla/5.0 (Windows NT 10.0; Win64; x64) AppleWebKit/537.36 (KHTML, like Gecko) draw.io/26.0.16 Chrome/132.0.6834.196 Electron/34.2.0 Safari/537.36" version="26.0.16">
  <diagram name="第 1 页" id="GY1-NF8eDpXeKutAC0yj">
    <mxGraphModel dx="893" dy="519" grid="0" gridSize="10" guides="1" tooltips="1" connect="1" arrows="1" fold="1" page="1" pageScale="1" pageWidth="827" pageHeight="1169" math="0" shadow="0">
      <root>
        <mxCell id="0" />
        <mxCell id="1" parent="0" />
        <mxCell id="npx8axAe3jh9eHqQafU--32" value="" style="edgeStyle=orthogonalEdgeStyle;rounded=0;orthogonalLoop=1;jettySize=auto;html=1;fillColor=#0050ef;strokeColor=#001DBC;" edge="1" parent="1" source="npx8axAe3jh9eHqQafU--1" target="npx8axAe3jh9eHqQafU--28">
          <mxGeometry relative="1" as="geometry" />
        </mxCell>
        <mxCell id="npx8axAe3jh9eHqQafU--1" value="&lt;div&gt;&lt;span style=&quot;background-color: transparent; color: light-dark(rgb(0, 0, 0), rgb(255, 255, 255));&quot;&gt;目标位姿&lt;/span&gt;&lt;/div&gt;" style="rounded=0;whiteSpace=wrap;html=1;" vertex="1" parent="1">
          <mxGeometry x="16" y="210" width="100" height="40" as="geometry" />
        </mxCell>
        <mxCell id="npx8axAe3jh9eHqQafU--3" value="机器人逆运动学" style="whiteSpace=wrap;html=1;" vertex="1" parent="1">
          <mxGeometry x="282" y="74" width="100" height="40" as="geometry" />
        </mxCell>
        <mxCell id="npx8axAe3jh9eHqQafU--4" value="关节控制信息" style="whiteSpace=wrap;html=1;" vertex="1" parent="1">
          <mxGeometry x="422" y="105" width="100" height="40" as="geometry" />
        </mxCell>
        <mxCell id="npx8axAe3jh9eHqQafU--43" value="" style="edgeStyle=orthogonalEdgeStyle;rounded=0;orthogonalLoop=1;jettySize=auto;html=1;fillColor=#e51400;strokeColor=#B20000;" edge="1" parent="1" source="npx8axAe3jh9eHqQafU--5" target="npx8axAe3jh9eHqQafU--17">
          <mxGeometry relative="1" as="geometry" />
        </mxCell>
        <mxCell id="npx8axAe3jh9eHqQafU--5" value="机器人" style="whiteSpace=wrap;html=1;" vertex="1" parent="1">
          <mxGeometry x="562" y="318" width="100" height="40" as="geometry" />
        </mxCell>
        <mxCell id="npx8axAe3jh9eHqQafU--15" value="机器人运动学" style="whiteSpace=wrap;html=1;" vertex="1" parent="1">
          <mxGeometry x="282" y="283" width="100" height="40" as="geometry" />
        </mxCell>
        <mxCell id="npx8axAe3jh9eHqQafU--17" value="到达目标位姿" style="whiteSpace=wrap;html=1;" vertex="1" parent="1">
          <mxGeometry x="702" y="318" width="100" height="40" as="geometry" />
        </mxCell>
        <mxCell id="npx8axAe3jh9eHqQafU--19" value="&lt;div&gt;&lt;span style=&quot;background-color: transparent; color: light-dark(rgb(0, 0, 0), rgb(255, 255, 255));&quot;&gt;目标位姿&lt;/span&gt;&lt;/div&gt;" style="rounded=0;whiteSpace=wrap;html=1;" vertex="1" parent="1">
          <mxGeometry x="35" y="778" width="100" height="40" as="geometry" />
        </mxCell>
        <mxCell id="npx8axAe3jh9eHqQafU--48" value="" style="edgeStyle=orthogonalEdgeStyle;rounded=0;orthogonalLoop=1;jettySize=auto;html=1;" edge="1" parent="1" source="npx8axAe3jh9eHqQafU--20" target="npx8axAe3jh9eHqQafU--23">
          <mxGeometry relative="1" as="geometry" />
        </mxCell>
        <mxCell id="npx8axAe3jh9eHqQafU--20" value="用户" style="whiteSpace=wrap;html=1;" vertex="1" parent="1">
          <mxGeometry x="182" y="778" width="100" height="40" as="geometry" />
        </mxCell>
        <mxCell id="npx8axAe3jh9eHqQafU--27" value="" style="edgeStyle=orthogonalEdgeStyle;rounded=0;orthogonalLoop=1;jettySize=auto;html=1;" edge="1" parent="1" source="npx8axAe3jh9eHqQafU--21" target="npx8axAe3jh9eHqQafU--26">
          <mxGeometry relative="1" as="geometry" />
        </mxCell>
        <mxCell id="npx8axAe3jh9eHqQafU--46" value="" style="edgeStyle=orthogonalEdgeStyle;rounded=0;orthogonalLoop=1;jettySize=auto;html=1;" edge="1" parent="1" source="npx8axAe3jh9eHqQafU--21" target="npx8axAe3jh9eHqQafU--44">
          <mxGeometry relative="1" as="geometry" />
        </mxCell>
        <mxCell id="npx8axAe3jh9eHqQafU--21" value="机器人" style="whiteSpace=wrap;html=1;" vertex="1" parent="1">
          <mxGeometry x="463" y="778" width="100" height="40" as="geometry" />
        </mxCell>
        <mxCell id="npx8axAe3jh9eHqQafU--22" value="" style="endArrow=classic;html=1;rounded=0;exitX=1;exitY=0.5;exitDx=0;exitDy=0;entryX=0;entryY=0.5;entryDx=0;entryDy=0;" edge="1" parent="1" source="npx8axAe3jh9eHqQafU--19" target="npx8axAe3jh9eHqQafU--20">
          <mxGeometry width="50" height="50" relative="1" as="geometry">
            <mxPoint x="437" y="751" as="sourcePoint" />
            <mxPoint x="487" y="701" as="targetPoint" />
          </mxGeometry>
        </mxCell>
        <mxCell id="npx8axAe3jh9eHqQafU--49" value="" style="edgeStyle=orthogonalEdgeStyle;rounded=0;orthogonalLoop=1;jettySize=auto;html=1;" edge="1" parent="1" source="npx8axAe3jh9eHqQafU--23" target="npx8axAe3jh9eHqQafU--21">
          <mxGeometry relative="1" as="geometry" />
        </mxCell>
        <mxCell id="npx8axAe3jh9eHqQafU--23" value="直接抓取" style="whiteSpace=wrap;html=1;" vertex="1" parent="1">
          <mxGeometry x="329" y="778" width="100" height="40" as="geometry" />
        </mxCell>
        <mxCell id="npx8axAe3jh9eHqQafU--26" value="到达目标位姿" style="whiteSpace=wrap;html=1;" vertex="1" parent="1">
          <mxGeometry x="611" y="778" width="100" height="40" as="geometry" />
        </mxCell>
        <mxCell id="npx8axAe3jh9eHqQafU--28" value="控制系统" style="whiteSpace=wrap;html=1;" vertex="1" parent="1">
          <mxGeometry x="162" y="200" width="120" height="60" as="geometry" />
        </mxCell>
        <mxCell id="npx8axAe3jh9eHqQafU--29" value="机器人逆动力学" style="whiteSpace=wrap;html=1;" vertex="1" parent="1">
          <mxGeometry x="282" y="137" width="100" height="40" as="geometry" />
        </mxCell>
        <mxCell id="npx8axAe3jh9eHqQafU--30" value="机器人动力学" style="whiteSpace=wrap;html=1;" vertex="1" parent="1">
          <mxGeometry x="282" y="349" width="100" height="40" as="geometry" />
        </mxCell>
        <mxCell id="npx8axAe3jh9eHqQafU--42" value="" style="edgeStyle=orthogonalEdgeStyle;rounded=0;orthogonalLoop=1;jettySize=auto;html=1;fillColor=#e51400;strokeColor=#B20000;" edge="1" parent="1" source="npx8axAe3jh9eHqQafU--31" target="npx8axAe3jh9eHqQafU--5">
          <mxGeometry relative="1" as="geometry" />
        </mxCell>
        <mxCell id="npx8axAe3jh9eHqQafU--31" value="关节控制信号" style="whiteSpace=wrap;html=1;" vertex="1" parent="1">
          <mxGeometry x="422" y="318" width="100" height="40" as="geometry" />
        </mxCell>
        <mxCell id="npx8axAe3jh9eHqQafU--33" value="" style="endArrow=classic;html=1;rounded=0;exitX=0.5;exitY=0;exitDx=0;exitDy=0;entryX=0;entryY=0.5;entryDx=0;entryDy=0;fillColor=#0050ef;strokeColor=#001DBC;" edge="1" parent="1" source="npx8axAe3jh9eHqQafU--28" target="npx8axAe3jh9eHqQafU--3">
          <mxGeometry width="50" height="50" relative="1" as="geometry">
            <mxPoint x="416" y="287" as="sourcePoint" />
            <mxPoint x="258" y="125" as="targetPoint" />
            <Array as="points">
              <mxPoint x="222" y="94" />
            </Array>
          </mxGeometry>
        </mxCell>
        <mxCell id="npx8axAe3jh9eHqQafU--34" value="" style="endArrow=classic;html=1;rounded=0;entryX=0;entryY=0.5;entryDx=0;entryDy=0;fillColor=#0050ef;strokeColor=#001DBC;" edge="1" parent="1" target="npx8axAe3jh9eHqQafU--29">
          <mxGeometry width="50" height="50" relative="1" as="geometry">
            <mxPoint x="223" y="157" as="sourcePoint" />
            <mxPoint x="466" y="237" as="targetPoint" />
          </mxGeometry>
        </mxCell>
        <mxCell id="npx8axAe3jh9eHqQafU--35" value="" style="endArrow=classic;html=1;rounded=0;exitX=1;exitY=0.5;exitDx=0;exitDy=0;entryX=0;entryY=0.5;entryDx=0;entryDy=0;fillColor=#0050ef;strokeColor=#001DBC;" edge="1" parent="1" source="npx8axAe3jh9eHqQafU--3" target="npx8axAe3jh9eHqQafU--4">
          <mxGeometry width="50" height="50" relative="1" as="geometry">
            <mxPoint x="416" y="287" as="sourcePoint" />
            <mxPoint x="466" y="237" as="targetPoint" />
            <Array as="points">
              <mxPoint x="402" y="94" />
              <mxPoint x="402" y="125" />
            </Array>
          </mxGeometry>
        </mxCell>
        <mxCell id="npx8axAe3jh9eHqQafU--36" value="" style="endArrow=classic;html=1;rounded=0;exitX=1;exitY=0.5;exitDx=0;exitDy=0;entryX=0;entryY=0.5;entryDx=0;entryDy=0;fillColor=#0050ef;strokeColor=#001DBC;" edge="1" parent="1" source="npx8axAe3jh9eHqQafU--29" target="npx8axAe3jh9eHqQafU--4">
          <mxGeometry width="50" height="50" relative="1" as="geometry">
            <mxPoint x="416" y="287" as="sourcePoint" />
            <mxPoint x="466" y="237" as="targetPoint" />
            <Array as="points">
              <mxPoint x="402" y="157" />
              <mxPoint x="402" y="125" />
            </Array>
          </mxGeometry>
        </mxCell>
        <mxCell id="npx8axAe3jh9eHqQafU--37" value="" style="endArrow=classic;html=1;rounded=0;exitX=0.5;exitY=1;exitDx=0;exitDy=0;entryX=1;entryY=0.5;entryDx=0;entryDy=0;fillColor=#e51400;strokeColor=#B20000;" edge="1" parent="1" source="npx8axAe3jh9eHqQafU--4" target="npx8axAe3jh9eHqQafU--28">
          <mxGeometry width="50" height="50" relative="1" as="geometry">
            <mxPoint x="416" y="230" as="sourcePoint" />
            <mxPoint x="466" y="180" as="targetPoint" />
            <Array as="points">
              <mxPoint x="472" y="230" />
            </Array>
          </mxGeometry>
        </mxCell>
        <mxCell id="npx8axAe3jh9eHqQafU--38" value="" style="endArrow=classic;html=1;rounded=0;exitX=0.5;exitY=1;exitDx=0;exitDy=0;entryX=0;entryY=0.5;entryDx=0;entryDy=0;fillColor=#e51400;strokeColor=#B20000;" edge="1" parent="1" source="npx8axAe3jh9eHqQafU--28" target="npx8axAe3jh9eHqQafU--30">
          <mxGeometry width="50" height="50" relative="1" as="geometry">
            <mxPoint x="416" y="230" as="sourcePoint" />
            <mxPoint x="466" y="180" as="targetPoint" />
            <Array as="points">
              <mxPoint x="222" y="369" />
            </Array>
          </mxGeometry>
        </mxCell>
        <mxCell id="npx8axAe3jh9eHqQafU--39" value="" style="endArrow=classic;html=1;rounded=0;entryX=0;entryY=0.5;entryDx=0;entryDy=0;fillColor=#e51400;strokeColor=#B20000;" edge="1" parent="1" target="npx8axAe3jh9eHqQafU--15">
          <mxGeometry width="50" height="50" relative="1" as="geometry">
            <mxPoint x="222" y="303" as="sourcePoint" />
            <mxPoint x="466" y="180" as="targetPoint" />
          </mxGeometry>
        </mxCell>
        <mxCell id="npx8axAe3jh9eHqQafU--40" value="" style="endArrow=classic;html=1;rounded=0;exitX=1;exitY=0.5;exitDx=0;exitDy=0;entryX=0;entryY=0.5;entryDx=0;entryDy=0;fillColor=#e51400;strokeColor=#B20000;" edge="1" parent="1" source="npx8axAe3jh9eHqQafU--15" target="npx8axAe3jh9eHqQafU--31">
          <mxGeometry width="50" height="50" relative="1" as="geometry">
            <mxPoint x="416" y="230" as="sourcePoint" />
            <mxPoint x="466" y="180" as="targetPoint" />
            <Array as="points">
              <mxPoint x="402" y="303" />
              <mxPoint x="402" y="338" />
            </Array>
          </mxGeometry>
        </mxCell>
        <mxCell id="npx8axAe3jh9eHqQafU--41" value="" style="endArrow=classic;html=1;rounded=0;exitX=1;exitY=0.5;exitDx=0;exitDy=0;entryX=0;entryY=0.5;entryDx=0;entryDy=0;fillColor=#e51400;strokeColor=#B20000;" edge="1" parent="1" source="npx8axAe3jh9eHqQafU--30" target="npx8axAe3jh9eHqQafU--31">
          <mxGeometry width="50" height="50" relative="1" as="geometry">
            <mxPoint x="416" y="230" as="sourcePoint" />
            <mxPoint x="466" y="180" as="targetPoint" />
            <Array as="points">
              <mxPoint x="402" y="369" />
              <mxPoint x="402" y="338" />
            </Array>
          </mxGeometry>
        </mxCell>
        <mxCell id="npx8axAe3jh9eHqQafU--47" value="" style="edgeStyle=orthogonalEdgeStyle;rounded=0;orthogonalLoop=1;jettySize=auto;html=1;" edge="1" parent="1" source="npx8axAe3jh9eHqQafU--44" target="npx8axAe3jh9eHqQafU--45">
          <mxGeometry relative="1" as="geometry" />
        </mxCell>
        <mxCell id="npx8axAe3jh9eHqQafU--44" value="控制系统" style="whiteSpace=wrap;html=1;" vertex="1" parent="1">
          <mxGeometry x="453" y="675" width="120" height="60" as="geometry" />
        </mxCell>
        <mxCell id="npx8axAe3jh9eHqQafU--45" value="零力补偿" style="whiteSpace=wrap;html=1;" vertex="1" parent="1">
          <mxGeometry x="255" y="685" width="100" height="40" as="geometry" />
        </mxCell>
        <mxCell id="npx8axAe3jh9eHqQafU--51" value="" style="endArrow=none;html=1;rounded=0;exitX=0.5;exitY=1;exitDx=0;exitDy=0;" edge="1" parent="1" source="npx8axAe3jh9eHqQafU--45">
          <mxGeometry width="50" height="50" relative="1" as="geometry">
            <mxPoint x="383" y="687" as="sourcePoint" />
            <mxPoint x="305" y="798" as="targetPoint" />
          </mxGeometry>
        </mxCell>
        <mxCell id="npx8axAe3jh9eHqQafU--62" value="" style="edgeStyle=orthogonalEdgeStyle;rounded=0;orthogonalLoop=1;jettySize=auto;html=1;" edge="1" parent="1" source="npx8axAe3jh9eHqQafU--52" target="npx8axAe3jh9eHqQafU--61">
          <mxGeometry relative="1" as="geometry" />
        </mxCell>
        <mxCell id="npx8axAe3jh9eHqQafU--52" value="模型训练" style="whiteSpace=wrap;html=1;" vertex="1" parent="1">
          <mxGeometry x="245" y="987" width="100" height="40" as="geometry" />
        </mxCell>
        <mxCell id="npx8axAe3jh9eHqQafU--54" value="已知环境" style="rounded=0;whiteSpace=wrap;html=1;labelPosition=center;verticalLabelPosition=top;align=center;verticalAlign=bottom;" vertex="1" parent="1">
          <mxGeometry x="67.5" y="917" width="140" height="180" as="geometry" />
        </mxCell>
        <mxCell id="npx8axAe3jh9eHqQafU--55" value="" style="edgeStyle=orthogonalEdgeStyle;rounded=0;orthogonalLoop=1;jettySize=auto;html=1;" edge="1" parent="1" source="npx8axAe3jh9eHqQafU--53" target="npx8axAe3jh9eHqQafU--52">
          <mxGeometry relative="1" as="geometry">
            <Array as="points">
              <mxPoint x="220" y="1057" />
              <mxPoint x="220" y="1007" />
            </Array>
          </mxGeometry>
        </mxCell>
        <mxCell id="npx8axAe3jh9eHqQafU--53" value="数据样本" style="whiteSpace=wrap;html=1;" vertex="1" parent="1">
          <mxGeometry x="87" y="1037" width="100" height="40" as="geometry" />
        </mxCell>
        <mxCell id="npx8axAe3jh9eHqQafU--56" value="陌生环境" style="rounded=0;whiteSpace=wrap;html=1;labelPosition=center;verticalLabelPosition=top;align=center;verticalAlign=bottom;" vertex="1" parent="1">
          <mxGeometry x="542" y="917" width="140" height="180" as="geometry" />
        </mxCell>
        <mxCell id="npx8axAe3jh9eHqQafU--58" value="" style="edgeStyle=orthogonalEdgeStyle;rounded=0;orthogonalLoop=1;jettySize=auto;html=1;" edge="1" parent="1" source="npx8axAe3jh9eHqQafU--57" target="npx8axAe3jh9eHqQafU--52">
          <mxGeometry relative="1" as="geometry">
            <Array as="points">
              <mxPoint x="220" y="957" />
              <mxPoint x="220" y="1007" />
            </Array>
          </mxGeometry>
        </mxCell>
        <mxCell id="npx8axAe3jh9eHqQafU--57" value="环境参数" style="whiteSpace=wrap;html=1;" vertex="1" parent="1">
          <mxGeometry x="87.5" y="937" width="100" height="40" as="geometry" />
        </mxCell>
        <mxCell id="npx8axAe3jh9eHqQafU--63" value="" style="edgeStyle=orthogonalEdgeStyle;rounded=0;orthogonalLoop=1;jettySize=auto;html=1;fillColor=#e51400;strokeColor=#B20000;" edge="1" parent="1" source="npx8axAe3jh9eHqQafU--59" target="npx8axAe3jh9eHqQafU--61">
          <mxGeometry relative="1" as="geometry" />
        </mxCell>
        <mxCell id="npx8axAe3jh9eHqQafU--59" value="环境参数" style="whiteSpace=wrap;html=1;" vertex="1" parent="1">
          <mxGeometry x="562.5" y="937" width="100" height="40" as="geometry" />
        </mxCell>
        <mxCell id="npx8axAe3jh9eHqQafU--67" value="" style="edgeStyle=orthogonalEdgeStyle;rounded=0;orthogonalLoop=1;jettySize=auto;html=1;fillColor=#e51400;strokeColor=#B20000;" edge="1" parent="1" source="npx8axAe3jh9eHqQafU--61" target="npx8axAe3jh9eHqQafU--65">
          <mxGeometry relative="1" as="geometry">
            <Array as="points">
              <mxPoint x="425" y="1049" />
            </Array>
          </mxGeometry>
        </mxCell>
        <mxCell id="npx8axAe3jh9eHqQafU--61" value="模型" style="whiteSpace=wrap;html=1;" vertex="1" parent="1">
          <mxGeometry x="375" y="987" width="100" height="40" as="geometry" />
        </mxCell>
        <mxCell id="npx8axAe3jh9eHqQafU--65" value="生成数据" style="whiteSpace=wrap;html=1;" vertex="1" parent="1">
          <mxGeometry x="562" y="1029" width="100" height="40" as="geometry" />
        </mxCell>
      </root>
    </mxGraphModel>
  </diagram>
</mxfile>
